<?xml version="1.0" encoding="UTF-8" standalone="no"?>
<!-- Created with Inkscape (http://www.inkscape.org/) -->

<svg
   xmlns:dc="http://purl.org/dc/elements/1.1/"
   xmlns:cc="http://creativecommons.org/ns#"
   xmlns:rdf="http://www.w3.org/1999/02/22-rdf-syntax-ns#"
   xmlns:svg="http://www.w3.org/2000/svg"
   xmlns="http://www.w3.org/2000/svg"
   xmlns:sodipodi="http://sodipodi.sourceforge.net/DTD/sodipodi-0.dtd"
   xmlns:inkscape="http://www.inkscape.org/namespaces/inkscape"
   width="210mm"
   height="297mm"
   viewBox="0 0 210 297"
   version="1.1"
   id="svg8"
   inkscape:version="0.92.4 (5da689c313, 2019-01-14)"
   sodipodi:docname="logo.svg"
   inkscape:export-filename="C:\Users\feloi\Documents\IOC\Projecte\bueno-master\img\logo.png"
   inkscape:export-xdpi="58.299999"
   inkscape:export-ydpi="58.299999">
  <defs
     id="defs2" />
  <sodipodi:namedview
     id="base"
     pagecolor="#ffffff"
     bordercolor="#666666"
     borderopacity="1.0"
     inkscape:pageopacity="0.0"
     inkscape:pageshadow="2"
     inkscape:zoom="1.4"
     inkscape:cx="351.51116"
     inkscape:cy="641.59398"
     inkscape:document-units="mm"
     inkscape:current-layer="layer1"
     showgrid="false"
     inkscape:window-width="1920"
     inkscape:window-height="1017"
     inkscape:window-x="-8"
     inkscape:window-y="-8"
     inkscape:window-maximized="1" />
  <metadata
     id="metadata5">
    <rdf:RDF>
      <cc:Work
         rdf:about="">
        <dc:format>image/svg+xml</dc:format>
        <dc:type
           rdf:resource="http://purl.org/dc/dcmitype/StillImage" />
        <dc:title></dc:title>
      </cc:Work>
    </rdf:RDF>
  </metadata>
  <g
     inkscape:label="Layer 1"
     inkscape:groupmode="layer"
     id="layer1">
    <path
       style="fill:#b0c364;fill-opacity:1;stroke:#b0c364;stroke-width:0.5;stroke-linejoin:miter;stroke-miterlimit:4;stroke-dasharray:none;stroke-opacity:1"
       d="m 95.294335,92.27137 a 31.003266,31.003266 0 0 0 -31.003274,31.00327 31.003266,31.003266 0 0 0 18.650024,28.39569 c 0.310375,-4.69494 0.610685,-9.64033 0.553455,-11.43238 -0.09549,-2.9373 -0.426662,-2.60569 -1.090374,-4.02611 -0.662885,-1.42129 -2.462453,-2.36823 -2.888194,-5.40019 -0.286227,-3.1153 -0.27617,-3.63306 -0.109556,-10.01592 0.07365,-2.82406 0.674743,-11.25171 1.505336,-11.41378 0.930272,-0.18149 0.887359,16.98674 1.029909,17.88676 0.142523,0.90006 0.606954,0.71062 0.700733,0 0.108395,-2.19529 0.09203,-2.70133 0.211357,-6.44094 0.264406,-4.65723 0.188487,-11.4235 0.938961,-11.4608 0.750512,0.047 0.743834,8.02915 0.796333,11.45821 0.09605,2.17433 -0.130064,6.82869 0.767395,7.07347 0.832096,-0.18908 0.617953,-3.26948 0.767397,-7.07347 0.05253,-3.42906 0.04636,-11.41121 0.796848,-11.45821 0.750502,0.0373 0.67454,6.80357 0.938962,11.4608 0.119332,3.73961 0.102462,4.24565 0.210841,6.44094 0.09385,0.71062 0.558699,0.90006 0.701249,0 0.14252,-0.90002 0.09964,-18.06825 1.029912,-17.88676 0.83059,0.16207 1.431115,8.58972 1.504817,11.41378 0.166669,6.38286 0.177229,6.90062 -0.109037,10.01592 -0.425728,3.03196 -2.225829,3.9789 -2.888713,5.40019 -0.663713,1.42042 -0.994257,1.08881 -1.089856,4.02611 -0.06417,2.00828 0.318924,7.98319 0.664041,13.10824 a 31.003266,31.003266 0 0 0 7.411434,0.93173 31.003266,31.003266 0 0 0 6.060095,-0.60306 c 0.29032,-4.26458 0.48395,-7.80034 0.53485,-9.76117 0.098,-3.62986 0.57946,-4.99141 -1.66811,-9.9074 -3.486107,-4.2154 -5.02036,-6.73588 -5.296839,-12.65556 -0.03075,-7.44005 4.642848,-10.59481 5.901969,-11.75587 1.09324,-0.66125 1.77472,-0.71462 2.19005,-0.69402 h 5.1e-4 c 0.0676,0.001 0.10733,0.005 0.16123,0.0114 0.0536,-0.003 0.0939,-0.0104 0.16123,-0.0114 0.41533,-0.0197 1.09681,0.0329 2.19005,0.69402 1.25912,1.16106 5.6451,4.43911 5.90197,11.75587 -0.52302,6.98799 -1.81075,8.44016 -5.29684,12.65556 -2.24756,4.91599 -1.7654,6.27754 -1.6676,9.9074 0.047,1.81444 0.21465,4.9666 0.46922,8.80412 a 31.003266,31.003266 0 0 0 21.36149,-29.44317 31.003266,31.003266 0 0 0 -2.0066,-10.85721 12.561667,12.561667 0 0 1 -2.00246,0.16639 12.561667,12.561667 0 0 1 -12.40027,-10.60297 12.561666,12.561666 0 0 1 -2.03244,0.17984 12.561666,12.561666 0 0 1 -12.254546,-9.873818 31.003266,31.003266 0 0 0 -0.306959,-0.0155 z"
       id="path4522"
       inkscape:connector-curvature="0" />
    <flowRoot
       xml:space="preserve"
       id="flowRoot5312"
       style="font-style:normal;font-weight:normal;font-size:40px;line-height:1.25;font-family:sans-serif;letter-spacing:0px;word-spacing:0px;fill:#b0c364;fill-opacity:1;stroke:none"
       transform="matrix(0.54688526,0,0,0.54688526,-55.190756,-191.10294)"><flowRegion
         id="flowRegion5314"
         style="fill:#b0c364;fill-opacity:1"><rect
           id="rect5316"
           width="370.71429"
           height="81.428574"
           x="202.14285"
           y="627.51971"
           style="fill:#b0c364;fill-opacity:1" /></flowRegion><flowPara
         id="flowPara5318"
         style="font-style:normal;font-variant:normal;font-weight:normal;font-stretch:normal;font-family:'Ink Free';-inkscape-font-specification:'Ink Free';fill:#b0c364;fill-opacity:1">Receptes</flowPara></flowRoot>  </g>
</svg>
